<?xml version="1.0" encoding="UTF-8"?>
<svg xmlns="http://www.w3.org/2000/svg" xmlns:xlink="http://www.w3.org/1999/xlink" width="125px" height="35px" viewBox="0 0 124 35" version="1.1">
<g id="surface1">
<path style=" stroke:none;fill-rule:nonzero;fill:rgb(0%,0%,0%);fill-opacity:1;" d="M 15.121094 0.605469 C 3.296875 3.3125 -3.074219 14.558594 1.535156 24.515625 C 3.46875 28.621094 7.683594 32.324219 12.417969 34.035156 C 14.625 34.832031 14.898438 34.632812 14.898438 32.238281 L 14.898438 30.375 L 13.609375 30.507812 C 11.054688 30.726562 9.195312 29.863281 8.082031 27.910156 C 7.757812 27.335938 6.964844 26.445312 6.320312 25.9375 C 4.980469 24.894531 5.082031 24.429688 6.570312 24.671875 C 7.609375 24.851562 8.699219 25.625 9.445312 26.714844 C 10.238281 27.820312 11.699219 28.441406 13.238281 28.289062 C 14.574219 28.132812 15.144531 27.820312 15.144531 27.269531 C 15.144531 27.066406 15.367188 26.601562 15.617188 26.226562 L 16.089844 25.558594 L 14.550781 25.269531 C 11.328125 24.695312 8.824219 22.984375 7.882812 20.679688 C 6.839844 18.128906 7.140625 14.578125 8.527344 12.894531 C 9.074219 12.226562 9.121094 12.007812 9 10.519531 C 8.921875 9.542969 9 8.566406 9.195312 8.058594 C 9.492188 7.28125 9.542969 7.238281 10.410156 7.371094 C 10.90625 7.457031 12.144531 7.878906 13.164062 8.347656 C 14.972656 9.144531 15.046875 9.167969 16.386719 8.902344 C 18.195312 8.566406 21.34375 8.566406 23.328125 8.902344 C 24.886719 9.167969 24.960938 9.167969 25.980469 8.589844 C 27.195312 7.902344 29.621094 7.191406 30.117188 7.347656 C 30.6875 7.546875 31.109375 9.855469 30.8125 11.050781 C 30.613281 11.828125 30.613281 12.117188 30.886719 12.382812 C 31.085938 12.582031 31.53125 13.316406 31.902344 14.023438 C 32.523438 15.222656 32.546875 15.488281 32.449219 17.617188 C 32.351562 19.636719 32.226562 20.082031 31.53125 21.34375 C 30.34375 23.539062 27.988281 24.9375 24.789062 25.359375 L 23.671875 25.515625 L 24.242188 26.535156 C 24.765625 27.445312 24.8125 27.820312 24.8125 30.839844 C 24.8125 34.121094 24.8125 34.121094 25.410156 34.386719 C 25.953125 34.585938 26.375 34.476562 28.582031 33.5 C 32.425781 31.816406 34.855469 29.839844 36.9375 26.734375 C 38.871094 23.875 39.6875 21.167969 39.6875 17.683594 C 39.6875 10.03125 34.234375 3.378906 25.929688 0.9375 C 23.175781 0.117188 17.945312 -0.0390625 15.121094 0.605469 Z M 15.121094 0.605469 "/>
<path style=" stroke:none;fill-rule:nonzero;fill:rgb(0%,0%,0%);fill-opacity:1;" d="M 54.832031 8.632812 C 51.957031 9.078125 49.875 10.71875 48.933594 13.269531 C 48.585938 14.203125 48.488281 15.15625 48.511719 17.375 C 48.511719 20.613281 48.933594 21.988281 50.371094 23.539062 C 52.503906 25.847656 57.882812 26.558594 61.847656 25.027344 L 62.988281 24.605469 L 62.941406 20.324219 L 62.867188 16.042969 L 59.46875 15.976562 L 56.046875 15.910156 L 56.046875 19.039062 L 58.773438 19.039062 L 58.773438 22.34375 L 57.90625 22.5 C 55.949219 22.808594 54.066406 22.121094 53.273438 20.746094 C 52.777344 19.925781 52.703125 19.480469 52.703125 17.261719 C 52.703125 14.46875 53.074219 13.382812 54.339844 12.5625 C 55.503906 11.785156 58.105469 11.652344 61.054688 12.207031 C 61.476562 12.292969 62.296875 9.589844 61.921875 9.300781 C 61.082031 8.699219 56.964844 8.324219 54.832031 8.632812 Z M 54.832031 8.632812 "/>
<path style=" stroke:none;fill-rule:nonzero;fill:rgb(0%,0%,0%);fill-opacity:1;" d="M 81.507812 9.1875 C 81.40625 9.277344 81.332031 12.980469 81.332031 17.417969 L 81.332031 25.472656 L 85.546875 25.472656 L 85.546875 18.371094 L 91.496094 18.371094 L 91.496094 25.472656 L 95.464844 25.472656 L 95.464844 9.054688 L 91.496094 9.054688 L 91.496094 15.265625 L 85.574219 15.265625 L 85.5 12.207031 L 85.425781 9.167969 L 83.566406 9.101562 C 82.523438 9.078125 81.605469 9.101562 81.507812 9.1875 Z M 81.507812 9.1875 "/>
<path style=" stroke:none;fill-rule:nonzero;fill:rgb(0%,0%,0%);fill-opacity:1;" d="M 111.578125 9.167969 C 111.578125 9.234375 111.578125 12.894531 111.578125 17.308594 L 111.550781 25.359375 L 113.0625 25.425781 C 114.277344 25.472656 114.550781 25.425781 114.550781 25.136719 C 114.550781 24.714844 114.5 24.714844 115.816406 25.292969 C 117.203125 25.890625 120.003906 25.957031 121.171875 25.402344 C 122.878906 24.582031 123.722656 22.765625 123.722656 19.8125 C 123.722656 17.441406 123.226562 15.933594 122.113281 15.066406 C 120.625 13.890625 118.816406 13.714844 116.113281 14.492188 C 115.566406 14.644531 115.566406 14.625 115.492188 11.917969 L 115.417969 9.167969 L 113.511719 9.101562 C 112.445312 9.054688 111.578125 9.101562 111.578125 9.167969 Z M 118.914062 17.328125 C 119.484375 17.796875 119.582031 18.039062 119.707031 19.503906 C 119.90625 22.410156 118.964844 23.386719 116.558594 22.808594 L 115.542969 22.566406 L 115.542969 17.308594 L 116.238281 17.085938 C 117.351562 16.707031 118.195312 16.796875 118.914062 17.328125 Z M 118.914062 17.328125 "/>
<path style=" stroke:none;fill-rule:nonzero;fill:rgb(0%,0%,0%);fill-opacity:1;" d="M 65.617188 10.054688 C 64.402344 11.050781 64.898438 12.828125 66.558594 13.359375 C 67.351562 13.601562 68.667969 13.070312 69.085938 12.339844 C 70.203125 10.410156 67.425781 8.546875 65.617188 10.054688 Z M 65.617188 10.054688 "/>
<path style=" stroke:none;fill-rule:nonzero;fill:rgb(0%,0%,0%);fill-opacity:1;" d="M 72.535156 11.320312 C 72.484375 11.472656 72.382812 12.25 72.359375 13.046875 L 72.285156 14.46875 L 71.367188 14.667969 L 70.425781 14.867188 L 70.425781 17.261719 L 72.335938 17.261719 L 72.460938 20.324219 C 72.582031 23.851562 72.878906 24.5625 74.46875 25.316406 C 75.457031 25.757812 77.9375 25.914062 79.054688 25.605469 C 79.574219 25.449219 79.625 25.316406 79.550781 24.183594 L 79.472656 22.917969 L 78.65625 22.984375 C 78.183594 23.03125 77.566406 22.917969 77.21875 22.71875 C 76.648438 22.367188 76.625 22.277344 76.625 19.8125 L 76.625 17.261719 L 79.351562 17.261719 L 79.351562 14.378906 L 76.648438 14.378906 L 76.574219 12.761719 L 76.5 11.164062 L 74.566406 11.097656 C 73.179688 11.050781 72.609375 11.117188 72.535156 11.320312 Z M 72.535156 11.320312 "/>
<path style=" stroke:none;fill-rule:nonzero;fill:rgb(0%,0%,0%);fill-opacity:1;" d="M 65.21875 19.925781 L 65.21875 25.472656 L 69.1875 25.472656 L 69.1875 14.378906 L 65.21875 14.378906 Z M 65.21875 19.925781 "/>
<path style=" stroke:none;fill-rule:nonzero;fill:rgb(0%,0%,0%);fill-opacity:1;" d="M 97.546875 14.710938 C 97.445312 14.890625 97.421875 16.910156 97.472656 19.214844 C 97.570312 23.875 97.769531 24.472656 99.40625 25.335938 C 100.644531 25.980469 103.59375 25.957031 105.230469 25.292969 C 106.667969 24.714844 106.617188 24.714844 106.617188 25.136719 C 106.617188 25.402344 106.941406 25.472656 107.980469 25.472656 L 109.347656 25.472656 L 109.347656 14.378906 L 105.378906 14.378906 L 105.378906 22.566406 L 104.460938 22.785156 C 103.199219 23.097656 102.851562 23.097656 102.207031 22.675781 C 101.6875 22.34375 101.660156 22.230469 101.660156 18.351562 L 101.660156 14.378906 L 99.679688 14.378906 C 98.117188 14.378906 97.644531 14.445312 97.546875 14.710938 Z M 97.546875 14.710938 "/>
</g>
</svg>
